<svg xmlns="http://www.w3.org/2000/svg" xmlns:xlink="http://www.w3.org/1999/xlink" width="290" height="569" viewBox="0 0 290 569">
  <defs>
    <style>
      .cls-1 {
        clip-path: url(#clip-Web_1920_2);
      }

      .cls-2 {
        fill: #bbb;
        stroke: #505050;
        stroke-width: 2px;
      }

      .cls-3 {
        stroke: none;
      }

      .cls-4 {
        fill: none;
      }

      .cls-5 {
        fill: #fff;
      }
    </style>
    <clipPath id="clip-Web_1920_2">
      <rect width="290" height="569"/>
    </clipPath>
  </defs>
  <g id="Web_1920_2" data-name="Web 1920 – 2" class="cls-1">
    <rect class="cls-5" width="290" height="569"/>
    <g id="Jaousie1" transform="translate(-195 -261)">
      <g id="jalou_part20" class="cls-2" transform="translate(195 801)">
        <path class="cls-3" d="M0,0H290a0,0,0,0,1,0,0V24a5,5,0,0,1-5,5H5a5,5,0,0,1-5-5V0A0,0,0,0,1,0,0Z"/>
        <path class="cls-4" d="M1,1H289a0,0,0,0,1,0,0V24a4,4,0,0,1-4,4H5a4,4,0,0,1-4-4V1A0,0,0,0,1,1,1Z"/>
      </g>
      <g id="jalou_part19" class="cls-2" transform="translate(195 774)">
        <path class="cls-3" d="M0,0H290a0,0,0,0,1,0,0V24a5,5,0,0,1-5,5H5a5,5,0,0,1-5-5V0A0,0,0,0,1,0,0Z"/>
        <path class="cls-4" d="M1,1H289a0,0,0,0,1,0,0V24a4,4,0,0,1-4,4H5a4,4,0,0,1-4-4V1A0,0,0,0,1,1,1Z"/>
      </g>
      <g id="jalou_part18" class="cls-2" transform="translate(195 747)">
        <path class="cls-3" d="M0,0H290a0,0,0,0,1,0,0V24a5,5,0,0,1-5,5H5a5,5,0,0,1-5-5V0A0,0,0,0,1,0,0Z"/>
        <path class="cls-4" d="M1,1H289a0,0,0,0,1,0,0V24a4,4,0,0,1-4,4H5a4,4,0,0,1-4-4V1A0,0,0,0,1,1,1Z"/>
      </g>
      <g id="jalou_part17" class="cls-2" transform="translate(195 720)">
        <path class="cls-3" d="M0,0H290a0,0,0,0,1,0,0V24a5,5,0,0,1-5,5H5a5,5,0,0,1-5-5V0A0,0,0,0,1,0,0Z"/>
        <path class="cls-4" d="M1,1H289a0,0,0,0,1,0,0V24a4,4,0,0,1-4,4H5a4,4,0,0,1-4-4V1A0,0,0,0,1,1,1Z"/>
      </g>
      <g id="jalou_part16" class="cls-2" transform="translate(195 693)">
        <path class="cls-3" d="M0,0H290a0,0,0,0,1,0,0V24a5,5,0,0,1-5,5H5a5,5,0,0,1-5-5V0A0,0,0,0,1,0,0Z"/>
        <path class="cls-4" d="M1,1H289a0,0,0,0,1,0,0V24a4,4,0,0,1-4,4H5a4,4,0,0,1-4-4V1A0,0,0,0,1,1,1Z"/>
      </g>
      <g id="jalou_part15" class="cls-2" transform="translate(195 666)">
        <path class="cls-3" d="M0,0H290a0,0,0,0,1,0,0V24a5,5,0,0,1-5,5H5a5,5,0,0,1-5-5V0A0,0,0,0,1,0,0Z"/>
        <path class="cls-4" d="M1,1H289a0,0,0,0,1,0,0V24a4,4,0,0,1-4,4H5a4,4,0,0,1-4-4V1A0,0,0,0,1,1,1Z"/>
      </g>
      <g id="jalou_part14" class="cls-2" transform="translate(195 639)">
        <path class="cls-3" d="M0,0H290a0,0,0,0,1,0,0V24a5,5,0,0,1-5,5H5a5,5,0,0,1-5-5V0A0,0,0,0,1,0,0Z"/>
        <path class="cls-4" d="M1,1H289a0,0,0,0,1,0,0V24a4,4,0,0,1-4,4H5a4,4,0,0,1-4-4V1A0,0,0,0,1,1,1Z"/>
      </g>
      <g id="jalou_part13" class="cls-2" transform="translate(195 612)">
        <path class="cls-3" d="M0,0H290a0,0,0,0,1,0,0V24a5,5,0,0,1-5,5H5a5,5,0,0,1-5-5V0A0,0,0,0,1,0,0Z"/>
        <path class="cls-4" d="M1,1H289a0,0,0,0,1,0,0V24a4,4,0,0,1-4,4H5a4,4,0,0,1-4-4V1A0,0,0,0,1,1,1Z"/>
      </g>
      <g id="jalou_part12" class="cls-2" transform="translate(195 585)">
        <path class="cls-3" d="M0,0H290a0,0,0,0,1,0,0V24a5,5,0,0,1-5,5H5a5,5,0,0,1-5-5V0A0,0,0,0,1,0,0Z"/>
        <path class="cls-4" d="M1,1H289a0,0,0,0,1,0,0V24a4,4,0,0,1-4,4H5a4,4,0,0,1-4-4V1A0,0,0,0,1,1,1Z"/>
      </g>
      <g id="jalou_part11" class="cls-2" transform="translate(195 558)">
        <path class="cls-3" d="M0,0H290a0,0,0,0,1,0,0V24a5,5,0,0,1-5,5H5a5,5,0,0,1-5-5V0A0,0,0,0,1,0,0Z"/>
        <path class="cls-4" d="M1,1H289a0,0,0,0,1,0,0V24a4,4,0,0,1-4,4H5a4,4,0,0,1-4-4V1A0,0,0,0,1,1,1Z"/>
      </g>
      <g id="jalou_part10" class="cls-2" transform="translate(195 531)">
        <path class="cls-3" d="M0,0H290a0,0,0,0,1,0,0V24a5,5,0,0,1-5,5H5a5,5,0,0,1-5-5V0A0,0,0,0,1,0,0Z"/>
        <path class="cls-4" d="M1,1H289a0,0,0,0,1,0,0V24a4,4,0,0,1-4,4H5a4,4,0,0,1-4-4V1A0,0,0,0,1,1,1Z"/>
      </g>
      <g id="jalou_part9" class="cls-2" transform="translate(195 504)">
        <path class="cls-3" d="M0,0H290a0,0,0,0,1,0,0V24a5,5,0,0,1-5,5H5a5,5,0,0,1-5-5V0A0,0,0,0,1,0,0Z"/>
        <path class="cls-4" d="M1,1H289a0,0,0,0,1,0,0V24a4,4,0,0,1-4,4H5a4,4,0,0,1-4-4V1A0,0,0,0,1,1,1Z"/>
      </g>
      <g id="jalou_part8" class="cls-2" transform="translate(195 477)">
        <path class="cls-3" d="M0,0H290a0,0,0,0,1,0,0V24a5,5,0,0,1-5,5H5a5,5,0,0,1-5-5V0A0,0,0,0,1,0,0Z"/>
        <path class="cls-4" d="M1,1H289a0,0,0,0,1,0,0V24a4,4,0,0,1-4,4H5a4,4,0,0,1-4-4V1A0,0,0,0,1,1,1Z"/>
      </g>
      <g id="jalou_part7" class="cls-2" transform="translate(195 450)">
        <path class="cls-3" d="M0,0H290a0,0,0,0,1,0,0V24a5,5,0,0,1-5,5H5a5,5,0,0,1-5-5V0A0,0,0,0,1,0,0Z"/>
        <path class="cls-4" d="M1,1H289a0,0,0,0,1,0,0V24a4,4,0,0,1-4,4H5a4,4,0,0,1-4-4V1A0,0,0,0,1,1,1Z"/>
      </g>
      <g id="jalou_part6" class="cls-2" transform="translate(195 423)">
        <path class="cls-3" d="M0,0H290a0,0,0,0,1,0,0V24a5,5,0,0,1-5,5H5a5,5,0,0,1-5-5V0A0,0,0,0,1,0,0Z"/>
        <path class="cls-4" d="M1,1H289a0,0,0,0,1,0,0V24a4,4,0,0,1-4,4H5a4,4,0,0,1-4-4V1A0,0,0,0,1,1,1Z"/>
      </g>
      <g id="jalou_part5" class="cls-2" transform="translate(195 396)">
        <path class="cls-3" d="M0,0H290a0,0,0,0,1,0,0V24a5,5,0,0,1-5,5H5a5,5,0,0,1-5-5V0A0,0,0,0,1,0,0Z"/>
        <path class="cls-4" d="M1,1H289a0,0,0,0,1,0,0V24a4,4,0,0,1-4,4H5a4,4,0,0,1-4-4V1A0,0,0,0,1,1,1Z"/>
      </g>
      <g id="jalou_part4" class="cls-2" transform="translate(195 369)">
        <path class="cls-3" d="M0,0H290a0,0,0,0,1,0,0V24a5,5,0,0,1-5,5H5a5,5,0,0,1-5-5V0A0,0,0,0,1,0,0Z"/>
        <path class="cls-4" d="M1,1H289a0,0,0,0,1,0,0V24a4,4,0,0,1-4,4H5a4,4,0,0,1-4-4V1A0,0,0,0,1,1,1Z"/>
      </g>
      <g id="jalou_part3" class="cls-2" transform="translate(195 342)">
        <path class="cls-3" d="M0,0H290a0,0,0,0,1,0,0V24a5,5,0,0,1-5,5H5a5,5,0,0,1-5-5V0A0,0,0,0,1,0,0Z"/>
        <path class="cls-4" d="M1,1H289a0,0,0,0,1,0,0V24a4,4,0,0,1-4,4H5a4,4,0,0,1-4-4V1A0,0,0,0,1,1,1Z"/>
      </g>
      <g id="jalou_part2" class="cls-2" transform="translate(195 315)">
        <path class="cls-3" d="M0,0H290a0,0,0,0,1,0,0V24a5,5,0,0,1-5,5H5a5,5,0,0,1-5-5V0A0,0,0,0,1,0,0Z"/>
        <path class="cls-4" d="M1,1H289a0,0,0,0,1,0,0V24a4,4,0,0,1-4,4H5a4,4,0,0,1-4-4V1A0,0,0,0,1,1,1Z"/>
      </g>
      <g id="jalou_part1" class="cls-2" transform="translate(195 288)">
        <path class="cls-3" d="M0,0H290a0,0,0,0,1,0,0V24a5,5,0,0,1-5,5H5a5,5,0,0,1-5-5V0A0,0,0,0,1,0,0Z"/>
        <path class="cls-4" d="M1,1H289a0,0,0,0,1,0,0V24a4,4,0,0,1-4,4H5a4,4,0,0,1-4-4V1A0,0,0,0,1,1,1Z"/>
      </g>
      <g id="jalou_part0" class="cls-2" transform="translate(195 261)">
        <path class="cls-3" d="M0,0H290a0,0,0,0,1,0,0V24a5,5,0,0,1-5,5H5a5,5,0,0,1-5-5V0A0,0,0,0,1,0,0Z"/>
        <path class="cls-4" d="M1,1H289a0,0,0,0,1,0,0V24a4,4,0,0,1-4,4H5a4,4,0,0,1-4-4V1A0,0,0,0,1,1,1Z"/>
      </g>
    </g>
  </g>
</svg>
