# Blender 3.6.5
# www.blender.org
mtllib Nema_shaft.mtl
o Cylinder
v 0.000000 -0.010200 -0.005000
v 0.000000 0.010200 -0.005000
v 0.000868 -0.010200 -0.004924
v 0.000868 0.010200 -0.004924
v 0.001710 -0.010200 -0.004698
v 0.001710 0.010200 -0.004698
v 0.002500 -0.010200 -0.004330
v 0.002500 0.010200 -0.004330
v 0.003214 -0.010200 -0.003830
v 0.003214 0.010200 -0.003830
v 0.003830 -0.010200 -0.003214
v 0.003830 0.010200 -0.003214
v 0.004330 -0.010200 -0.002500
v 0.004330 0.010200 -0.002500
v 0.004330 -0.010200 0.002500
v 0.004330 0.010200 0.002500
v 0.003830 -0.010200 0.003214
v 0.003830 0.010200 0.003214
v 0.003214 -0.010200 0.003830
v 0.003214 0.010200 0.003830
v 0.002500 -0.010200 0.004330
v 0.002500 0.010200 0.004330
v 0.001710 -0.010200 0.004698
v 0.001710 0.010200 0.004698
v 0.000868 -0.010200 0.004924
v 0.000868 0.010200 0.004924
v 0.000000 -0.010200 0.005000
v 0.000000 0.010200 0.005000
v -0.000868 -0.010200 0.004924
v -0.000868 0.010200 0.004924
v -0.001710 -0.010200 0.004698
v -0.001710 0.010200 0.004698
v -0.002500 -0.010200 0.004330
v -0.002500 0.010200 0.004330
v -0.003214 -0.010200 0.003830
v -0.003214 0.010200 0.003830
v -0.003830 -0.010200 0.003214
v -0.003830 0.010200 0.003214
v -0.004330 -0.010200 0.002500
v -0.004330 0.010200 0.002500
v -0.004698 -0.010200 0.001710
v -0.004698 0.010200 0.001710
v -0.004924 -0.010200 0.000868
v -0.004924 0.010200 0.000868
v -0.005000 -0.010200 0.000000
v -0.005000 0.010200 0.000000
v -0.004924 -0.010200 -0.000868
v -0.004924 0.010200 -0.000868
v -0.004698 -0.010200 -0.001710
v -0.004698 0.010200 -0.001710
v -0.004330 -0.010200 -0.002500
v -0.004330 0.010200 -0.002500
v -0.003830 -0.010200 -0.003214
v -0.003830 0.010200 -0.003214
v -0.003214 -0.010200 -0.003830
v -0.003214 0.010200 -0.003830
v -0.002500 -0.010200 -0.004330
v -0.002500 0.010200 -0.004330
v -0.001710 -0.010200 -0.004698
v -0.001710 0.010200 -0.004698
v -0.000868 -0.010200 -0.004924
v -0.000868 0.010200 -0.004924
v 0.004500 0.010200 -0.002136
v 0.004500 -0.010200 -0.002136
v 0.004500 0.010200 0.002136
v 0.004500 -0.010200 0.002136
vn 0.0872 -0.0000 -0.9962
vn 0.2588 -0.0000 -0.9659
vn 0.4226 -0.0000 -0.9063
vn 0.5736 -0.0000 -0.8192
vn 0.7071 -0.0000 -0.7071
vn 0.8192 -0.0000 -0.5736
vn 0.9063 -0.0000 -0.4226
vn 0.9063 -0.0000 0.4226
vn 0.8192 -0.0000 0.5736
vn 0.7071 -0.0000 0.7071
vn 0.5736 -0.0000 0.8192
vn 0.4226 -0.0000 0.9063
vn 0.2588 -0.0000 0.9659
vn 0.0872 -0.0000 0.9962
vn -0.0872 -0.0000 0.9962
vn -0.2588 -0.0000 0.9659
vn -0.4226 -0.0000 0.9063
vn -0.5736 -0.0000 0.8192
vn -0.7071 -0.0000 0.7071
vn -0.8192 -0.0000 0.5736
vn -0.9063 -0.0000 0.4226
vn -0.9659 -0.0000 0.2588
vn -0.9962 -0.0000 0.0872
vn -0.9962 -0.0000 -0.0872
vn -0.9659 -0.0000 -0.2588
vn -0.9063 -0.0000 -0.4226
vn -0.8192 -0.0000 -0.5736
vn -0.7071 -0.0000 -0.7071
vn -0.5736 -0.0000 -0.8192
vn -0.4226 -0.0000 -0.9063
vn -0.0000 1.0000 -0.0000
vn -0.2588 -0.0000 -0.9659
vn -0.0872 -0.0000 -0.9962
vn -0.0000 -1.0000 -0.0000
vn 1.0000 -0.0000 -0.0000
vt 1.000000 0.500000
vt 1.000000 1.000000
vt 0.972222 1.000000
vt 0.972222 0.500000
vt 0.944444 1.000000
vt 0.944444 0.500000
vt 0.916667 1.000000
vt 0.916667 0.500000
vt 0.888889 1.000000
vt 0.888889 0.500000
vt 0.861111 1.000000
vt 0.861111 0.500000
vt 0.833333 1.000000
vt 0.833333 0.500000
vt 0.820522 0.500000
vt 0.820522 1.000000
vt 0.666667 1.000000
vt 0.666667 0.500000
vt 0.679477 0.500000
vt 0.679477 1.000000
vt 0.638889 1.000000
vt 0.638889 0.500000
vt 0.611111 1.000000
vt 0.611111 0.500000
vt 0.583333 1.000000
vt 0.583333 0.500000
vt 0.555555 1.000000
vt 0.555555 0.500000
vt 0.527778 1.000000
vt 0.527778 0.500000
vt 0.500000 1.000000
vt 0.500000 0.500000
vt 0.472222 1.000000
vt 0.472222 0.500000
vt 0.444444 1.000000
vt 0.444444 0.500000
vt 0.416666 1.000000
vt 0.416666 0.500000
vt 0.388889 1.000000
vt 0.388889 0.500000
vt 0.361111 1.000000
vt 0.361111 0.500000
vt 0.333333 1.000000
vt 0.333333 0.500000
vt 0.305555 1.000000
vt 0.305555 0.500000
vt 0.277777 1.000000
vt 0.277777 0.500000
vt 0.250000 1.000000
vt 0.250000 0.500000
vt 0.222222 1.000000
vt 0.222222 0.500000
vt 0.194444 1.000000
vt 0.194444 0.500000
vt 0.166666 1.000000
vt 0.166666 0.500000
vt 0.138889 1.000000
vt 0.138889 0.500000
vt 0.111111 1.000000
vt 0.111111 0.500000
vt 0.083333 1.000000
vt 0.083333 0.500000
vt 0.055555 1.000000
vt 0.055555 0.500000
vt 0.457846 0.370000
vt 0.433851 0.404269
vt 0.404269 0.433851
vt 0.370000 0.457846
vt 0.332085 0.475526
vt 0.291676 0.486354
vt 0.250000 0.490000
vt 0.208324 0.486354
vt 0.167915 0.475526
vt 0.130000 0.457846
vt 0.095731 0.433851
vt 0.066149 0.404269
vt 0.042154 0.370000
vt 0.024474 0.332085
vt 0.013646 0.291676
vt 0.010000 0.250000
vt 0.013646 0.208324
vt 0.024474 0.167915
vt 0.042154 0.130000
vt 0.066149 0.095731
vt 0.095731 0.066149
vt 0.130000 0.042154
vt 0.167915 0.024474
vt 0.208324 0.013646
vt 0.250000 0.010000
vt 0.291676 0.013646
vt 0.332085 0.024474
vt 0.370000 0.042154
vt 0.404269 0.066149
vt 0.433851 0.095731
vt 0.457846 0.130000
vt 0.466000 0.147486
vt 0.466000 0.352514
vt 0.027777 1.000000
vt 0.027777 0.500000
vt -0.000000 1.000000
vt -0.000000 0.500000
vt 0.966000 0.147486
vt 0.957846 0.130000
vt 0.933851 0.095731
vt 0.904269 0.066149
vt 0.870000 0.042154
vt 0.832085 0.024474
vt 0.791676 0.013646
vt 0.750000 0.010000
vt 0.708324 0.013646
vt 0.667915 0.024474
vt 0.630000 0.042154
vt 0.595731 0.066149
vt 0.566149 0.095731
vt 0.542154 0.130000
vt 0.524474 0.167915
vt 0.513646 0.208324
vt 0.510000 0.250000
vt 0.513646 0.291676
vt 0.524474 0.332085
vt 0.542154 0.370000
vt 0.566149 0.404269
vt 0.595731 0.433851
vt 0.630000 0.457846
vt 0.667915 0.475526
vt 0.708324 0.486354
vt 0.750000 0.490000
vt 0.791676 0.486354
vt 0.832085 0.475526
vt 0.870000 0.457846
vt 0.904269 0.433851
vt 0.933851 0.404269
vt 0.957846 0.370000
vt 0.966000 0.352514
vt 0.375000 0.178393
vt 0.625000 0.178393
vt 0.625000 0.071607
vt 0.375000 0.071607
s 0
f 1/1/1 2/2/1 4/3/1 3/4/1
f 3/4/2 4/3/2 6/5/2 5/6/2
f 5/6/3 6/5/3 8/7/3 7/8/3
f 7/8/4 8/7/4 10/9/4 9/10/4
f 9/10/5 10/9/5 12/11/5 11/12/5
f 11/12/6 12/11/6 14/13/6 13/14/6
f 64/15/7 13/14/7 14/13/7 63/16/7
f 16/17/8 15/18/8 66/19/8 65/20/8
f 15/18/9 16/17/9 18/21/9 17/22/9
f 17/22/10 18/21/10 20/23/10 19/24/10
f 19/24/11 20/23/11 22/25/11 21/26/11
f 21/26/12 22/25/12 24/27/12 23/28/12
f 23/28/13 24/27/13 26/29/13 25/30/13
f 25/30/14 26/29/14 28/31/14 27/32/14
f 27/32/15 28/31/15 30/33/15 29/34/15
f 29/34/16 30/33/16 32/35/16 31/36/16
f 31/36/17 32/35/17 34/37/17 33/38/17
f 33/38/18 34/37/18 36/39/18 35/40/18
f 35/40/19 36/39/19 38/41/19 37/42/19
f 37/42/20 38/41/20 40/43/20 39/44/20
f 39/44/21 40/43/21 42/45/21 41/46/21
f 41/46/22 42/45/22 44/47/22 43/48/22
f 43/48/23 44/47/23 46/49/23 45/50/23
f 45/50/24 46/49/24 48/51/24 47/52/24
f 47/52/25 48/51/25 50/53/25 49/54/25
f 49/54/26 50/53/26 52/55/26 51/56/26
f 51/56/27 52/55/27 54/57/27 53/58/27
f 53/58/28 54/57/28 56/59/28 55/60/28
f 55/60/29 56/59/29 58/61/29 57/62/29
f 57/62/30 58/61/30 60/63/30 59/64/30
f 14/65/31 12/66/31 10/67/31 8/68/31 6/69/31 4/70/31 2/71/31 62/72/31 60/73/31 58/74/31 56/75/31 54/76/31 52/77/31 50/78/31 48/79/31 46/80/31 44/81/31 42/82/31 40/83/31 38/84/31 36/85/31 34/86/31 32/87/31 30/88/31 28/89/31 26/90/31 24/91/31 22/92/31 20/93/31 18/94/31 16/95/31 65/96/31 63/97/31
f 59/64/32 60/63/32 62/98/32 61/99/32
f 61/99/33 62/98/33 2/100/33 1/101/33
f 66/102/34 15/103/34 17/104/34 19/105/34 21/106/34 23/107/34 25/108/34 27/109/34 29/110/34 31/111/34 33/112/34 35/113/34 37/114/34 39/115/34 41/116/34 43/117/34 45/118/34 47/119/34 49/120/34 51/121/34 53/122/34 55/123/34 57/124/34 59/125/34 61/126/34 1/127/34 3/128/34 5/129/34 7/130/34 9/131/34 11/132/34 13/133/34 64/134/34
f 64/135/35 63/136/35 65/137/35 66/138/35
