<?xml version="1.0" encoding="UTF-8" standalone="no"?>
<!DOCTYPE svg PUBLIC "-//W3C//DTD SVG 1.1//EN" "http://www.w3.org/Graphics/SVG/1.1/DTD/svg11.dtd">
<svg width="100%" height="100%" viewBox="0 0 290 29" version="1.1" xmlns="http://www.w3.org/2000/svg" xmlns:xlink="http://www.w3.org/1999/xlink" xml:space="preserve" xmlns:serif="http://www.serif.com/" style="fill-rule:evenodd;clip-rule:evenodd;stroke-linejoin:round;stroke-miterlimit:2;">
    <g transform="matrix(1,0,0,1,-137.999,-218.555)">
        <path d="M427.999,218.555L137.999,218.555L137.999,236.588C137.999,242.645 142.909,247.555 148.966,247.555C194.849,247.555 371.149,247.555 417.032,247.555C423.089,247.555 427.999,242.645 427.999,236.588C427.999,228.377 427.999,218.555 427.999,218.555Z" style="fill:rgb(187,187,187);"/>
        <path d="M427.999,218.555L137.999,218.555L137.999,236.588C137.999,242.645 142.909,247.555 148.966,247.555C194.849,247.555 371.149,247.555 417.032,247.555C423.089,247.555 427.999,242.645 427.999,236.588C427.999,228.377 427.999,218.555 427.999,218.555ZM425.255,221.299L425.255,236.588C425.255,241.13 421.573,244.811 417.032,244.812C417.032,244.812 148.966,244.812 148.966,244.812C144.424,244.812 140.743,241.13 140.742,236.588C140.742,236.588 140.742,221.299 140.742,221.299L425.255,221.299Z" style="fill:rgb(79,79,79);"/>
    </g>
</svg>
